<?xml version="1.0" encoding="UTF-8"?>
<svg width="3271px" height="501px" viewBox="0 0 3271 501" version="1.1" xmlns="http://www.w3.org/2000/svg" xmlns:xlink="http://www.w3.org/1999/xlink">
    <title>字母表2nd</title>
    <g id="字母表2nd" stroke="none" stroke-width="1" fill="none" fill-rule="evenodd">
        <polygon id="c" fill="#000000" fill-rule="nonzero" points="397.5 351.442636 397.5 158.727368 486.596571 184.215816 481.920836 200.560158 414.499 181.272 414.499 338.557 484.719342 358.267184 480.125172 374.63464"></polygon>
        <polygon id="a" fill="#000000" fill-rule="nonzero" points="182.810949 175.183209 187.408813 158.816791 268.5 181.597964 268.5 376.547865 182.497496 351.372467 182.497496 222.963011 238.033413 222.963011 238.033413 239.963011 199.497 239.963 199.497 338.635 251.5 353.858 251.5 194.48"></polygon>
        <polygon id="e" fill="#000000" fill-rule="nonzero" points="609.5 353.800811 609.5 158.812001 694.784824 182.542188 694.784824 240.821253 638 240.821253 638 223.821253 677.784 223.821 677.784 195.457 626.499 181.187 626.499 340.922 694.393548 360.020519 689.790313 376.385427"></polygon>
        <polygon id="b" fill="#000000" fill-rule="nonzero" points="310.87125 117 310.871 163.558 380.100274 182.557766 380.100274 376.630434 292.87125 352.507648 292.87125 223.560687 309.87125 223.560687 309.871 339.57 363.1 354.291 363.1 195.521 293.87125 176.52072 293.87125 117"></polygon>
        <polygon id="d" fill="#000000" fill-rule="nonzero" points="571.569261 117 588.569261 117 588.569261 199.990406 518.994 180.281 518.994 339.665 588.637727 359.9943 583.874244 376.313284 501.994833 352.412826 501.994833 157.796923 571.569 177.505"></polygon>
        <path d="M714.997496,157.810177 L803.804907,182.858421 L799.190085,199.220065 L731.997,180.268 L731.997496,357.163634 L714.997496,357.163634 L714.997496,157.810177 Z M746.522219,223.889503 L784.524723,224.000036 L784.475277,240.999964 L746.472773,240.889431 L746.522219,223.889503 Z" id="f" fill="#000000" fill-rule="nonzero"></path>
        <polygon id="g" fill="#000000" fill-rule="nonzero" points="822.997496 351.466335 822.997496 157.882297 908.997496 181.563457 908.997496 373.085074 877.426196 454.792324 861.568796 448.665099 891.997 369.914 891.997 194.515 839.997 180.196 839.997 338.611 877.813601 349.321635 873.181391 365.678365"></polygon>
        <path d="M965.723781,168.140783 L1018.77591,182.538595 L1018.77591,377.5 L1001.77591,377.5 L1001.775,195.539 L961.271211,184.547325 L965.723781,168.140783 Z M949,117 L949,357.5 L932,357.5 L932,117 L949,117 Z" id="h" fill="#000000" fill-rule="nonzero"></path>
        <path d="M1061.85792,164.178368 L1125.75319,182.6483 L1125.75319,376.5 L1108.75319,376.5 L1108.753,195.429 L1057.13708,180.509739 L1061.85792,164.178368 Z M1125.9975,116.560687 L1125.9975,145.578486 L1108.9975,145.578486 L1108.9975,116.560687 L1125.9975,116.560687 Z" id="i" fill="#000000" fill-rule="nonzero"></path>
        <path d="M1167.8509,163.871534 L1232.9975,182.642586 L1232.9975,376.142287 L1201.38572,454.895085 L1185.60927,448.562338 L1215.997,372.858 L1215.997,195.435 L1163.14409,180.206952 L1167.8509,163.871534 Z M1231.9975,116.560687 L1231.9975,145.578486 L1214.9975,145.578486 L1214.9975,116.560687 L1231.9975,116.560687 Z" id="j" fill="#000000" fill-rule="nonzero"></path>
        <path d="M1338.9975,223.195652 L1338.9975,371.695652 L1321.9975,371.695652 L1321.997,240.195 L1283.4975,240.195652 L1283.4975,223.195652 L1338.9975,223.195652 Z M1253.00001,116.488194 L1269.99999,116.511806 L1269.66526,357.511806 L1252.66527,357.488194 L1253.00001,116.488194 Z M1288.85502,168.376016 L1337.99934,182.554931 L1333.28679,198.888695 L1284.14247,184.70978 L1288.85502,168.376016 Z" id="k" fill="#000000" fill-rule="nonzero"></path>
        <polygon id="l" fill="#000000" fill-rule="nonzero" points="1376.9975 116.5 1376.997 340.547 1445.73463 359.29968 1441.26037 375.70032 1359.9975 353.530989 1359.9975 116.5"></polygon>
        <path d="M1536.00031,355.426826 L1552.99969,355.573174 L1552.81301,377.256425 L1535.81364,377.110076 L1536.00031,355.426826 Z M1535.77591,158.884525 L1621.82784,182.562163 L1621.82784,376.201678 L1604.82784,376.201678 L1604.827,195.516 L1552.775,181.193 L1552.77491,182.547525 L1552.82784,182.562163 L1552.82784,335.298137 L1552.77591,335.297525 L1552.77591,339.534148 L1535.77591,339.534148 L1535.77591,195.501525 L1483.775,181.193 L1483.77591,357.5 L1466.77591,357.5 L1466.77591,158.884525 L1535.77591,177.869525 L1535.77591,158.884525 Z" id="m" fill="#000000" fill-rule="nonzero"></path>
        <path d="M1746.82947,157.722176 L1746.82947,352.475132 L1832.7544,376.686868 L1832.7544,182.65508 L1746.82947,157.722176 Z M1763.829,180.356 L1815.754,195.423 L1815.754,354.234 L1763.829,339.603 L1763.829,180.356 Z" id="o" fill="#000000" fill-rule="nonzero"></path>
        <polygon id="p" fill="#000000" fill-rule="nonzero" points="1853.57775 176.147559 1858.42225 159.852441 1938.5 183.65934 1938.5 376.870952 1870.5 357.889 1870.5 455 1853.5 455 1853.5 335.49347 1921.5 354.475 1921.5 196.34"></polygon>
        <polygon id="n" fill="#000000" fill-rule="nonzero" points="1641.5 356 1641.5 157.762537 1726.5 181.802914 1726.5 376 1709.5 376 1709.5 194.661 1658.5 180.237 1658.5 356"></polygon>
        <polygon id="q" fill="#000000" fill-rule="nonzero" points="1959.92532 353.53715 1959.92532 157.768697 2045.00987 182.093023 2044.6946 345.516398 2027.69463 345.483602 2027.985 194.906 1976.925 180.309 1976.925 340.541 2044.69461 358.96285 2044.69461 455 2027.69461 455 2027.694 371.959"></polygon>
        <path d="M2081.80417,159.852441 L2081.80417,355.895097 L2064.80417,355.895097 L2064.80417,159.852441 L2081.80417,159.852441 Z M2095.43812,167.48411 L2150.09493,181.822111 L2145.78132,198.265733 L2112.438,189.519 L2112.43812,223.602315 L2095.43812,223.602315 L2095.43812,167.48411 Z" id="r" fill="#000000" fill-rule="nonzero"></path>
        <path d="M2254.00837,223.560687 L2254.00837,376.589948 L2168.2631,353.200383 L2172.7369,336.799617 L2237.008,354.331 L2237.00837,223.560687 L2254.00837,223.560687 Z M2168.92402,158.912592 L2254.73259,182.299124 L2250.2624,198.700876 L2185.924,181.166 L2185.92402,241.139835 L2168.92402,241.139835 L2168.92402,158.912592 Z" id="s" fill="#000000" fill-rule="nonzero"></path>
        <path d="M2294.25593,116.35819 L2294.255,339.636 L2346.02138,354.506788 L2341.32792,370.846048 L2277.25593,352.441344 L2277.25593,116.35819 L2294.25593,116.35819 Z M2313.29536,168.423045 L2363.25554,182.85509 L2358.53764,199.18731 L2308.57745,184.755264 L2313.29536,168.423045 Z" id="t" fill="#000000" fill-rule="nonzero"></path>
        <path d="M2468.9486,181.747857 L2469,376.497757 L2452,376.502243 L2451.9486,181.752343 L2468.9486,181.747857 Z M2400.88253,159.578486 L2400.882,339.661 L2438.25842,350.546383 L2433.50504,366.868314 L2383.88253,352.41694 L2383.88253,159.578486 L2400.88253,159.578486 Z" id="u" fill="#000000" fill-rule="nonzero"></path>
        <polygon id="v" fill="#000000" fill-rule="nonzero" points="2574.89982 181.7501 2574.89982 377.737319 2547.43103 369.869105 2488.88508 352.840139 2493.63302 336.516626 2552.14561 353.535962 2557.899 355.183 2557.89982 181.7501"></polygon>
        <path d="M2597.33747,160.517528 L2614.33703,160.639444 L2613.045,340.623 L2664.035,355.051 L2664.7891,182.52165 L2681.78894,182.59593 L2680.93731,377.50082 L2595.95377,353.4548 L2597.33747,160.517528 Z M2733.72407,183.014085 L2750.72393,183.081558 L2749.95537,376.722422 L2695.01024,360.994734 L2699.6885,344.651114 L2733.045,354.198 L2733.72407,183.014085 Z" id="w" fill="#000000" fill-rule="nonzero"></path>
        <path d="M2788.81391,161.578486 L2788.813,223.075 L2856.81391,223.075482 L2856.81391,371.5 L2839.81391,371.5 L2839.813,240.075 L2771.81391,240.075482 L2771.81391,161.578486 L2788.81391,161.578486 Z M2789,259.5 L2789,352.5 L2772,352.5 L2772,259.5 L2789,259.5 Z M2857.04244,182.039243 L2857.04244,207.528494 L2840.04244,207.528494 L2840.04244,182.039243 L2857.04244,182.039243 Z" id="x" fill="#000000" fill-rule="nonzero"></path>
        <path d="M3000.95219,223.560687 L3000.952,339.642 L3069.78114,359.467099 L3065.07585,375.802955 L2983.95219,352.43652 L2983.95219,223.560687 L3000.95219,223.560687 Z M3038.4975,223.457323 L3038.4975,240.457323 L3014.4975,240.457323 L3014.4975,223.457323 L3038.4975,223.457323 Z M2988.16383,159.963377 L3069.87059,182.428855 L3069.95218,240.147207 L3052.9522,240.171238 L3052.888,195.39 L2983.65689,176.355068 L2988.16383,159.963377 Z" id="z" fill="#000000" fill-rule="nonzero"></path>
        <path d="M2963.9975,183.039243 L2963.9975,376.293856 L2928.27262,457.163444 L2912.72237,450.293978 L2946.997,372.706 L2946.9975,183.039243 L2963.9975,183.039243 Z M2895.41653,161.578486 L2895.416,340.542 L2935.72867,351.508686 L2931.26633,367.912574 L2878.41653,353.535881 L2878.41653,161.578486 L2895.41653,161.578486 Z" id="y" fill="#000000" fill-rule="nonzero"></path>
    </g>
</svg>