<?xml version="1.0" encoding="UTF-8"?>
<svg width="4000px" height="500px" viewBox="0 0 4000 500" version="1.1" xmlns="http://www.w3.org/2000/svg" xmlns:xlink="http://www.w3.org/1999/xlink">
    <title>字母表4th</title>
    <g id="字母表4th" stroke="none" stroke-width="1" fill="none" fill-rule="evenodd">
        <g id="编组-17" transform="translate(239.497496, 93.358190)" fill="#000000">
            <polygon id="c" fill-rule="nonzero" points="215.002504 236.084446 215.002504 43.3691783 304.099075 68.8576261 299.42334 85.2019678 232.001504 65.9138099 232.001504 223.19881 302.221846 242.908994 297.627676 259.27645"></polygon>
            <polygon id="a" fill-rule="nonzero" points="0.313453222 59.825019 4.9113168 43.4586007 86.002504 66.2397742 86.002504 261.189675 0 236.014277 2.55795385e-13 107.60482 55.5359171 107.60482 55.5359171 124.60482 16.999504 124.60481 16.999504 223.27681 69.002504 238.49981 69.002504 79.1218099"></polygon>
            <polygon id="e" fill-rule="nonzero" points="427.002504 238.442621 427.002504 43.4538104 512.287328 67.1839976 512.287328 125.463063 455.502504 125.463063 455.502504 108.463063 495.286504 108.46281 495.286504 80.0988099 444.001504 65.8288099 444.001504 225.56381 511.896052 244.662329 507.292817 261.027237"></polygon>
            <polygon id="b" fill-rule="nonzero" points="128.373754 1.64180986 128.373504 48.1998099 197.602778 67.1995757 197.602778 261.272244 110.373754 237.149458 110.373754 108.202497 127.373754 108.202497 127.373504 224.21181 180.602504 238.93281 180.602504 80.1628099 111.373754 61.1625301 111.373754 1.64180986"></polygon>
            <polygon id="d" fill-rule="nonzero" points="406.071765 1.64180986 406.071765 84.6322155 336.496504 64.9228099 336.496504 224.30681 406.140231 244.63611 401.376748 260.955094 319.497337 237.054636 319.497337 42.4387328 389.071504 62.1468099 389.071765 1.64180986"></polygon>
            <polygon id="g" fill-rule="nonzero" points="639.5 235.108145 639.5 41.524107 725.5 65.2052664 725.5 256.726884 693.9287 338.434134 678.0713 332.306908 708.499504 253.55581 708.499504 78.1568099 656.499504 63.8378099 656.499504 222.25281 694.316105 232.963445 689.683895 249.320175"></polygon>
            <g id="h" transform="translate(744.502504, 0.641810)" fill-rule="nonzero">
                <polygon id="路径-28" points="17 0 17 240.5 0 240.5 0 0"></polygon>
                <polygon id="路径-29" points="29.2712109 67.5473246 33.7237811 51.1407827 86.7759058 65.5385951 86.7759058 260.5 69.7759058 260.5 69.775 78.539"></polygon>
            </g>
            <g id="i" transform="translate(869.639580, 0.202497)" fill-rule="nonzero">
                <polygon id="路径-36" points="0 63.9490525 4.72083908 47.6176815 68.6161122 66.0876129 68.6161122 259.939313 51.6161122 259.939313 51.6159235 78.8683133"></polygon>
                <polygon id="路径-37" points="68.8604195 -2.27373675e-13 68.8604195 29.0177994 51.8604195 29.0177994 51.8604195 -2.27373675e-13"></polygon>
            </g>
            <g id="j" transform="translate(975.646592, 0.202497)" fill-rule="nonzero">
                <polygon id="路径-36" points="0 63.6462654 4.70681542 47.3108472 69.8534077 66.0818992 69.8534077 259.581601 38.2416318 338.334398 22.4651837 332.001651 52.8529117 256.297313 52.8529117 78.8743133"></polygon>
                <polygon id="路径-37" points="68.8534077 -2.27373675e-13 68.8534077 29.0177994 51.8534077 29.0177994 51.8534077 -2.27373675e-13"></polygon>
            </g>
            <g id="k" transform="translate(1065.167776, 0.130004)" fill-rule="nonzero">
                <polygon id="路径-38" points="0.334736191 0 17.3347198 0.0236120737 16.9999836 241.023612 0 241"></polygon>
                <polygon id="路径-64" points="86.332224 106.707458 86.332224 255.207458 69.332224 255.207458 69.331728 123.706806 30.832224 123.707458 30.832224 106.707458"></polygon>
                <polygon id="路径-39" points="36.1897513 51.8878216 85.3340638 66.0667368 80.6215131 82.4005014 31.4772007 68.2215862"></polygon>
            </g>
            <polygon id="l" fill-rule="nonzero" points="1189.5 0.141809858 1189.4995 224.18881 1258.23713 242.94149 1253.76287 259.34213 1172.5 237.172799 1172.5 0.141809858"></polygon>
            <g id="m" transform="translate(1279.278410, 42.526335)" fill-rule="nonzero">
                <polygon id="路径-41" points="0 198.615475 0 2.27373675e-13 86.0519361 23.6776386 86.0519361 176.413613 69.0519361 176.413613 69.0510942 36.6314753 16.9990942 22.3084753 17 198.615475"></polygon>
                <polygon id="路径-41" points="69 180.649623 69 2.27373675e-13 155.051936 23.6776386 155.051936 217.317153 138.051936 217.317153 138.051094 36.6314753 85.9990942 22.3084753 86 180.649623"></polygon>
                <polygon id="路径-55" points="69.2244092 196.542301 86.2237793 196.68865 86.0371063 218.371901 69.0377363 218.225552"></polygon>
            </g>
            <path d="M1559.33198,41.3639862 L1559.33198,236.116941 L1645.2569,260.328678 L1645.2569,66.2968898 L1559.33198,41.3639862 Z M1576.3315,63.9978099 L1628.2565,79.0648099 L1628.2565,237.87581 L1576.3315,223.24481 L1576.3315,63.9978099 Z" id="o" fill-rule="nonzero"></path>
            <polygon id="p" fill-rule="nonzero" points="1666.08026 59.7893689 1670.92475 43.4942508 1751.0025 67.3011503 1751.0025 260.512762 1683.0025 241.53081 1683.0025 338.64181 1666.0025 338.64181 1666.0025 219.13528 1734.0025 238.11681 1734.0025 79.9818099"></polygon>
            <polygon id="n" fill-rule="nonzero" points="1454.0025 239.64181 1454.0025 41.4043472 1539.0025 65.4447237 1539.0025 259.64181 1522.0025 259.64181 1522.0025 78.3028099 1471.0025 63.8788099 1471.0025 239.64181"></polygon>
            <polygon id="q" fill-rule="nonzero" points="1772.42783 237.17896 1772.42783 41.4105072 1857.51238 65.7348332 1857.1971 229.158208 1840.19713 229.125412 1840.4875 78.5478099 1789.4275 63.9508099 1789.4275 224.18281 1857.19712 242.604659 1857.19712 338.64181 1840.19712 338.64181 1840.1965 255.60081"></polygon>
            <g id="r" transform="translate(1877.306677, 43.494251)" fill-rule="nonzero">
                <polygon id="路径-44" points="17 0 17 196.042656 0 196.042656 0 0"></polygon>
                <polygon id="路径-45" points="30.6339514 63.7498745 30.6339514 7.63166874 85.2907611 21.9696701 80.9771418 38.4132916 47.6338268 29.666559 47.6339514 63.7498745"></polygon>
            </g>
            <g id="s" transform="translate(1980.765606, 42.554402)" fill-rule="nonzero">
                <polygon id="路径-46" points="0.660918381 82.2272433 0.660918381 0 86.4694859 23.3865321 81.9993018 39.7882837 17.6608978 22.2534079 17.6609184 82.2272433"></polygon>
                <polygon id="路径-47" points="85.7452639 64.6480946 85.7452639 217.677356 0 194.287791 4.47379568 177.887024 68.7448978 195.418408 68.7452639 64.6480946"></polygon>
            </g>
            <g id="t" transform="translate(2089.758436, 0.000000)" fill-rule="nonzero">
                <polygon id="路径-48" points="17 0 16.9990677 223.27781 68.7654444 238.148597 64.071985 254.487858 0 236.083154 0 0"></polygon>
                <polygon id="路径-49" points="36.0394232 52.0648544 85.9996115 66.4969002 81.2817082 82.8291196 31.3215199 68.3970738"></polygon>
            </g>
            <g id="u" transform="translate(2196.385032, 43.220296)" fill-rule="nonzero">
                <polygon id="路径-50" points="17 0 16.9994725 180.082514 54.3758881 190.967897 49.6225148 207.289828 0 192.838454 0 0"></polygon>
                <polygon id="路径-51" points="85.0660747 22.1693707 85.1174722 216.919271 68.1174728 216.923757 68.0660753 22.1738573"></polygon>
            </g>
            <polygon id="v" fill-rule="nonzero" points="2387.40233 65.3919099 2387.40233 261.379129 2359.93354 253.510915 2301.38759 236.481949 2306.13553 220.158436 2364.64811 237.177771 2370.4015 238.82481 2370.40233 65.3919099"></polygon>
            <g id="w" transform="translate(2408.456275, 44.159338)" fill-rule="nonzero">
                <polygon id="路径-54" points="1.38369856 0 18.3832614 0.121916675 17.0912294 180.105472 68.0812294 194.533472 68.8353337 22.004122 85.8351714 22.0784026 84.9835369 216.983292 0 192.937272"></polygon>
                <polygon id="路径-54" points="137.770296 22.4965574 154.770163 22.5640301 154.001599 216.204894 99.0564708 200.477206 103.734727 184.133586 137.091229 193.680472"></polygon>
            </g>
            <g id="x" transform="translate(2584.316411, 45.220296)" fill-rule="nonzero">
                <g id="编组-12">
                    <polygon id="路径-56" points="17 0 16.9990925 61.4965139 85 61.4969964 85 209.921514 68 209.921514 67.9990925 78.4965139 0 78.4969964 0 0"></polygon>
                    <polygon id="路径-53" points="85.2285342 20.460757 85.2285342 45.9500082 68.2285342 45.9500082 68.2285342 20.460757"></polygon>
                    <polygon id="路径-53" points="17.1860925 97.9215139 17.1860925 190.921514 0.186092514 190.921514 0.186092514 97.9215139"></polygon>
                </g>
            </g>
            <g id="z" transform="translate(2796.159394, 43.605187)" fill-rule="nonzero">
                <polygon id="路径-60" points="0 16.3916908 4.50693614 0 86.2136992 22.4654777 86.2952889 80.18383 69.2953059 80.2078608 69.2311102 35.4266226"></polygon>
                <polygon id="路径-63" points="54.8406062 63.4939457 54.8406062 80.4939457 30.8406062 80.4939457 30.8406062 63.4939457"></polygon>
                <polygon id="路径-62" points="17.2952974 63.5973093 17.2951102 179.678623 86.1242539 199.503722 81.4189593 215.839578 0.295297378 192.473142 0.295297378 63.5973093"></polygon>
            </g>
            <g id="y" transform="translate(2690.919034, 45.220296)" fill-rule="nonzero">
                <polygon id="路径-58" points="17 0 16.9994696 178.963514 57.3121347 189.9302 52.8497965 206.334088 0 191.957395 0 0"></polygon>
                <polygon id="路径-36" points="85.5809656 21.460757 85.5809656 214.71537 49.8560932 295.584958 34.305838 288.715492 68.5804696 211.127514 68.5809656 21.460757"></polygon>
            </g>
            <polygon id="," stroke="#000000" points="2956.98941 234.25743 2957 278.89564 2961.24294 278.934821 2970.99826 255.902441 2971.00275 238.238054"></polygon>
            <polygon id="." stroke="#000000" points="3063 234.242236 3077 238.227955 3077 255.805717 3063 251.930651"></polygon>
            <g id="?" transform="translate(3113.898772, 42.320333)">
                <polygon id="路径-67" fill-rule="nonzero" points="0 64.4551423 0.477811001 0 85.9943188 24.0504552 85.9150598 82.1255109 72.1107322 82.045477 72.1386619 173.648877 55.1386627 173.654072 55.1054419 64.9466077 68.9377322 65.026477 68.9757322 36.923477 17.3117322 22.393477 16.9995329 64.5811611"></polygon>
                <polygon id="路径-66" stroke="#000000" points="55.1012282 191.921903 69.1012282 195.907622 69.1012282 213.485384 55.1012282 209.610318"></polygon>
            </g>
            <g id="f" transform="translate(532.681362, 42.475046)" fill-rule="nonzero">
                <polygon id="路径-24" points="36.3106946 187.457136 86.3366386 201.557112 81.7248169 217.919603 31.6988729 203.819627"></polygon>
                <polygon id="路径-25" points="0 297.241989 0.273939439 0 69.4092403 19.3561027 64.8259227 35.7266006 17.253142 22.4067638 16.9999928 297.257656"></polygon>
            </g>
        </g>
    </g>
</svg>