<?xml version="1.0" encoding="UTF-8"?>
<svg width="4000px" height="500px" viewBox="0 0 4000 500" version="1.1" xmlns="http://www.w3.org/2000/svg" xmlns:xlink="http://www.w3.org/1999/xlink">
    <title>字母表3nd</title>
    <g id="字母表3nd" stroke="none" stroke-width="1" fill="none" fill-rule="evenodd">
        <polygon id="c" fill="#000000" fill-rule="nonzero" points="386.5 368.442636 386.5 175.727368 475.596571 201.215816 470.920836 217.560158 403.499 198.272 403.499 355.557 473.719342 375.267184 469.125172 391.63464"></polygon>
        <polygon id="a" fill="#000000" fill-rule="nonzero" points="171.810949 192.183209 176.408813 175.816791 257.5 198.597964 257.5 393.547865 171.497496 368.372467 171.497496 239.963011 227.033413 239.963011 227.033413 256.963011 188.497 256.963 188.497 355.635 240.5 370.858 240.5 211.48"></polygon>
        <polygon id="e" fill="#000000" fill-rule="nonzero" points="598.5 370.800811 598.5 175.812001 683.784824 199.542188 683.784824 257.821253 627 257.821253 627 240.821253 666.784 240.821 666.784 212.457 615.499 198.187 615.499 357.922 683.393548 377.020519 678.790313 393.385427"></polygon>
        <polygon id="b" fill="#000000" fill-rule="nonzero" points="299.87125 134 299.871 180.558 369.100274 199.557766 369.100274 393.630434 281.87125 369.507648 281.87125 240.560687 298.87125 240.560687 298.871 356.57 352.1 371.291 352.1 212.521 282.87125 193.52072 282.87125 134"></polygon>
        <polygon id="d" fill="#000000" fill-rule="nonzero" points="577.569261 134 577.569261 216.990406 507.994 197.281 507.994 356.665 577.637727 376.9943 572.874244 393.313284 490.994833 369.412826 490.994833 174.796923 560.569 194.505 560.569261 134"></polygon>
        <path d="M773.107705,134.019453 L773.125487,151.019453 L722.027,151.072 L720.997406,374.202857 L703.997586,374.124412 L705.105202,134.090581 L773.107705,134.019453 Z M740.125158,185.72739 L790.304675,199.410456 L785.832366,215.811628 L735.652848,202.128563 L740.125158,185.72739 Z" id="f" fill="#000000" fill-rule="nonzero"></path>
        <polygon id="g" fill="#000000" fill-rule="nonzero" points="810.997496 367.466335 810.997496 173.882297 896.997496 197.563457 896.997496 389.085074 865.426196 470.792324 849.568796 464.665099 879.997 385.914 879.997 210.515 827.997 196.196 827.997 354.611 865.813601 365.321635 861.181391 381.678365"></polygon>
        <path d="M949.723781,184.140783 L1002.77591,198.538595 L1002.77591,393.5 L985.775906,393.5 L985.775,211.539 L945.271211,200.547325 L949.723781,184.140783 Z M933,133 L933,373.5 L916,373.5 L916,133 L933,133 Z" id="h" fill="#000000" fill-rule="nonzero"></path>
        <path d="M1045.85792,180.178368 L1109.75319,198.6483 L1109.75319,392.5 L1092.75319,392.5 L1092.753,211.429 L1041.13708,196.509739 L1045.85792,180.178368 Z M1109.9975,132.560687 L1109.9975,161.578486 L1092.9975,161.578486 L1092.9975,132.560687 L1109.9975,132.560687 Z" id="i" fill="#000000" fill-rule="nonzero"></path>
        <path d="M1151.8509,179.871534 L1216.9975,198.642586 L1216.9975,392.142287 L1185.38572,470.895085 L1169.60927,464.562338 L1199.997,388.858 L1199.997,211.435 L1147.14409,196.206952 L1151.8509,179.871534 Z M1215.9975,132.560687 L1215.9975,161.578486 L1198.9975,161.578486 L1198.9975,132.560687 L1215.9975,132.560687 Z" id="j" fill="#000000" fill-rule="nonzero"></path>
        <path d="M1322.9975,239.195652 L1322.9975,387.695652 L1305.9975,387.695652 L1305.997,256.195 L1267.4975,256.195652 L1267.4975,239.195652 L1322.9975,239.195652 Z M1237.00001,132.488194 L1253.99999,132.511806 L1253.66526,373.511806 L1236.66527,373.488194 L1237.00001,132.488194 Z M1272.85502,184.376016 L1321.99934,198.554931 L1317.28679,214.888695 L1268.14247,200.70978 L1272.85502,184.376016 Z" id="k" fill="#000000" fill-rule="nonzero"></path>
        <polygon id="l" fill="#000000" fill-rule="nonzero" points="1360.9975 132.5 1360.997 356.547 1429.73463 375.29968 1425.26037 391.70032 1343.9975 369.530989 1343.9975 132.5"></polygon>
        <path d="M1520.00031,371.426826 L1536.99969,371.573174 L1536.81301,393.256425 L1519.81364,393.110076 L1520.00031,371.426826 Z M1519.77591,174.884525 L1605.82784,198.562163 L1605.82784,392.201678 L1588.82784,392.201678 L1588.827,211.516 L1536.775,197.193 L1536.77491,198.547525 L1536.82784,198.562163 L1536.82784,351.298137 L1536.77591,351.297525 L1536.77591,355.534148 L1519.77591,355.534148 L1519.77591,211.501525 L1467.775,197.193 L1467.77591,373.5 L1450.77591,373.5 L1450.77591,174.884525 L1519.77591,193.869525 L1519.77591,174.884525 Z" id="m" fill="#000000" fill-rule="nonzero"></path>
        <path d="M1730.82947,173.722176 L1730.82947,368.475132 L1816.7544,392.686868 L1816.7544,198.65508 L1730.82947,173.722176 Z M1747.829,196.356 L1799.754,211.423 L1799.754,370.234 L1747.829,355.603 L1747.829,196.356 Z" id="o" fill="#000000" fill-rule="nonzero"></path>
        <polygon id="p" fill="#000000" fill-rule="nonzero" points="1837.57775 192.147559 1842.42225 175.852441 1922.5 199.65934 1922.5 392.870952 1854.5 373.889 1854.5 471 1837.5 471 1837.5 351.49347 1905.5 370.475 1905.5 212.34"></polygon>
        <polygon id="n" fill="#000000" fill-rule="nonzero" points="1625.5 372 1625.5 173.762537 1710.5 197.802914 1710.5 392 1693.5 392 1693.5 210.661 1642.5 196.237 1642.5 372"></polygon>
        <polygon id="q" fill="#000000" fill-rule="nonzero" points="1943.92532 369.53715 1943.92532 173.768697 2029.00987 198.093023 2028.6946 361.516398 2011.69463 361.483602 2011.985 210.906 1960.925 196.309 1960.925 356.541 2028.69461 374.96285 2028.69461 471 2011.69461 471 2011.694 387.959"></polygon>
        <path d="M2065.80417,175.852441 L2065.80417,371.895097 L2048.80417,371.895097 L2048.80417,175.852441 L2065.80417,175.852441 Z M2079.43812,183.48411 L2134.09493,197.822111 L2129.78132,214.265733 L2096.438,205.519 L2096.43812,239.602315 L2079.43812,239.602315 L2079.43812,183.48411 Z" id="r" fill="#000000" fill-rule="nonzero"></path>
        <path d="M2238.00837,239.560687 L2238.00837,392.589948 L2152.2631,369.200383 L2156.7369,352.799617 L2221.008,370.331 L2221.00837,239.560687 L2238.00837,239.560687 Z M2152.92402,174.912592 L2238.73259,198.299124 L2234.2624,214.700876 L2169.924,197.166 L2169.92402,257.139835 L2152.92402,257.139835 L2152.92402,174.912592 Z" id="s" fill="#000000" fill-rule="nonzero"></path>
        <path d="M2278.25593,132.35819 L2278.255,355.636 L2330.02138,370.506788 L2325.32792,386.846048 L2261.25593,368.441344 L2261.25593,132.35819 L2278.25593,132.35819 Z M2297.29536,184.423045 L2347.25554,198.85509 L2342.53764,215.18731 L2292.57745,200.755264 L2297.29536,184.423045 Z" id="t" fill="#000000" fill-rule="nonzero"></path>
        <path d="M2452.9486,197.747857 L2453,392.497757 L2436,392.502243 L2435.9486,197.752343 L2452.9486,197.747857 Z M2384.88253,175.578486 L2384.882,355.661 L2422.25842,366.546383 L2417.50504,382.868314 L2367.88253,368.41694 L2367.88253,175.578486 L2384.88253,175.578486 Z" id="u" fill="#000000" fill-rule="nonzero"></path>
        <polygon id="v" fill="#000000" fill-rule="nonzero" points="2558.89982 197.7501 2558.89982 393.737319 2531.43103 385.869105 2472.88508 368.840139 2477.63302 352.516626 2536.14561 369.535962 2541.899 371.183 2541.89982 197.7501"></polygon>
        <path d="M2581.33747,176.517528 L2598.33703,176.639444 L2597.045,356.623 L2648.035,371.051 L2648.7891,198.52165 L2665.78894,198.59593 L2664.93731,393.50082 L2579.95377,369.4548 L2581.33747,176.517528 Z M2717.72407,199.014085 L2734.72393,199.081558 L2733.95537,392.722422 L2679.01024,376.994734 L2683.6885,360.651114 L2717.045,370.198 L2717.72407,199.014085 Z" id="w" fill="#000000" fill-rule="nonzero"></path>
        <path d="M2772.81391,177.578486 L2772.813,239.075 L2840.81391,239.075482 L2840.81391,387.5 L2823.81391,387.5 L2823.813,256.075 L2755.81391,256.075482 L2755.81391,177.578486 L2772.81391,177.578486 Z M2773,275.5 L2773,368.5 L2756,368.5 L2756,275.5 L2773,275.5 Z M2841.04244,198.039243 L2841.04244,223.528494 L2824.04244,223.528494 L2824.04244,198.039243 L2841.04244,198.039243 Z" id="x" fill="#000000" fill-rule="nonzero"></path>
        <path d="M2947.9975,199.039243 L2947.9975,392.293856 L2912.27262,473.163444 L2896.72237,466.293978 L2930.997,388.706 L2930.9975,199.039243 L2947.9975,199.039243 Z M2879.41653,177.578486 L2879.416,356.542 L2919.72867,367.508686 L2915.26633,383.912574 L2862.41653,369.535881 L2862.41653,177.578486 L2879.41653,177.578486 Z" id="y" fill="#000000" fill-rule="nonzero"></path>
        <path d="M2984.95219,239.560687 L2984.952,355.642 L3053.78114,375.467099 L3049.07585,391.802955 L2967.95219,368.43652 L2967.95219,239.560687 L2984.95219,239.560687 Z M3022.4975,239.457323 L3022.4975,256.457323 L2998.4975,256.457323 L2998.4975,239.457323 L3022.4975,239.457323 Z M2972.16383,175.963377 L3053.87059,198.428855 L3053.95218,256.147207 L3036.9522,256.171238 L3036.888,211.39 L2967.65689,192.355068 L2972.16383,175.963377 Z" id="z" fill="#000000" fill-rule="nonzero"></path>
        <polygon id="," stroke="#000000" fill="#000000" points="3128.4869 366.61562 3128.4975 411.25383 3132.74044 411.293011 3142.49576 388.260631 3142.50025 370.596244"></polygon>
        <g id="." transform="translate(3234.497496, 366.600426)" fill="#000000" stroke="#000000">
            <polygon id="路径-66" points="0 0 14 3.9857192 14 21.563481 0 17.6884151"></polygon>
        </g>
        <g id="?" transform="translate(3285.396268, 174.678523)" fill="#000000" fill-rule="nonzero">
            <path d="M55.1012282,191.921903 L69.1012282,195.907622 L69.1012282,213.485384 L55.1012282,209.610318 L55.1012282,191.921903 Z M0.477811001,0 L85.9943188,24.0504552 L85.9150598,82.1255109 L72.1107322,82.045477 L72.1386619,173.648877 L55.1386627,173.654072 L55.1054419,64.9466077 L68.9377322,65.026477 L68.9757322,36.923477 L17.3117322,22.393477 L16.9995329,64.5811611 L0,64.4551423 L0.477811001,0 Z" id="形状结合"></path>
        </g>
    </g>
</svg>
