<?xml version="1.0" encoding="UTF-8"?>
<svg width="1109px" height="840px" viewBox="0 0 1109 840" version="1.1" xmlns="http://www.w3.org/2000/svg" xmlns:xlink="http://www.w3.org/1999/xlink">
    <title>人良印刷细字</title>
    <g id="人良印刷细字" stroke="none" stroke-width="1" fill="none" fill-rule="evenodd">
        <g id="编组" transform="translate(271.305868, 267.134277)">
            <polygon id="红线" fill="#E02020" fill-rule="nonzero" points="93.3751417 77.8515731 376.373965 157.765994 374.471666 164.502555 91.4728427 84.5881344"></polygon>
            <path d="M206.144488,33.1390033 L271.452328,48.5626229 L271.452328,215.168922 L216.144132,201.461723 L216.144132,319.243723 L248.138,267.742 L223.070247,261.870739 L225.350801,252.134258 L253.707,258.776 L262.964786,243.875023 L271.45921,249.151836 L263.984,261.183 L272.834409,263.256237 L270.553855,272.992719 L258.415,270.149 L206.144488,354.293114 L206.144488,33.1390033 Z M65.6941353,145.695353 L65.9256206,352.873649 L55.9256268,352.884822 L55.6941353,145.706526 L65.6941353,145.695353 Z M305.694133,250.143369 L315.694131,250.149024 L315.636041,352.882063 L305.636041,352.876408 L305.694133,250.143369 Z M388.694133,271.666162 L398.694131,271.673315 L398.636041,352.882812 L388.636041,352.875659 L388.694133,271.666162 Z M140.913533,1.39207824 L186.694132,12.1290115 L186.694132,352.879236 L176.694132,352.879236 L176.694132,144.534723 L140.913533,136.151279 L140.913533,1.39207824 Z M290.882426,217.396739 L333.831,227.904 L333.831944,218.227395 L343.831944,218.227395 L343.831,230.351 L411.882426,247.00167 L409.505838,256.715157 L343.831,240.647 L343.831944,352.879236 L333.831944,352.879236 L333.831,238.2 L288.505838,227.110227 L290.882426,217.396739 Z M86.6941322,1.23006349 L133.168833,12.4441944 L133.168,140.013 L158.500275,146.255222 L158.500275,256.896151 L114.168833,246.250336 L114.168,140.707 L96.6931322,136.259723 L96.6941322,352.879236 L86.6941322,352.879236 L86.6941322,1.23006349 Z M59.5430751,1.95963427 L59.5430751,114.122348 L9.99913221,102.016723 L10,352.879236 L0,352.879236 L0,89.2799375 L49.5421322,101.383723 L49.5430751,1.95963427 L59.5430751,1.95963427 Z M124.168,185.575 L124.168132,238.366723 L148.500132,244.209723 L148.5,191.527 L124.168,185.575 Z M324.113934,60.2153585 L366.14278,70.6127768 L363.741298,80.3201392 L334.089132,72.9847226 L334.028132,104.077723 L365.052981,111.943757 L365.052,129.131 L365.136991,129.131196 L365.136991,183.390363 L365.052,183.39 L365.052981,219.164693 L323.824388,208.431781 L324.113934,60.2153585 Z M374.34536,90.9131317 L399.875494,97.1209617 L397.51277,106.83783 L384.345132,103.635723 L384.345132,205.079723 L398.896773,208.685934 L396.491492,218.392356 L374.34536,212.904477 L374.34536,90.9131317 Z M334.007132,114.388723 L333.839132,200.705723 L355.052132,206.226723 L355.052132,119.724723 L334.007132,114.388723 Z M216.144132,45.7747226 L216.144132,191.159723 L261.452132,202.387723 L261.452132,56.4757226 L216.144132,45.7747226 Z M315.773456,70.7092083 L320.524476,79.5085156 L305.635132,87.5467226 L305.635132,186.299723 L321.027126,190.089044 L318.636763,199.79915 L295.63604,194.137001 L295.63604,81.582026 L315.773456,70.7092083 Z M124.168132,148.094723 L124.168,175.28 L148.5,181.232 L148.500132,154.089723 L124.168132,148.094723 Z M150.913132,14.0087226 L150.913132,128.222723 L176.694132,134.263723 L176.694132,20.0547226 L150.913132,14.0087226 Z M96.6931322,13.9287226 L96.6931322,125.940723 L123.168132,132.678723 L123.168132,20.3177226 L96.6931322,13.9287226 Z M383.868411,8.52651283e-14 L400.357395,66.8462469 L324.444132,48.0657226 L309.105984,57.4477264 L303.888369,48.9168127 L310.798132,44.6907226 L289.493409,39.4202806 L291.894856,29.7129097 L322.790132,37.3557226 L383.868411,8.52651283e-14 Z M377.431132,15.6587226 L336.436132,40.7317226 L386.682132,53.1617226 L377.431132,15.6587226 Z M208.389969,2.15243656 L271.873577,17.5623925 L269.514687,27.2801924 L206.031079,11.8702365 L208.389969,2.15243656 Z" id="形状结合" fill="#000000" fill-rule="nonzero"></path>
            <path d="M101.694132,83.8657226 L137.694132,93.8657226 M154.194132,98.3657226 L193.194132,109.365723 M239.194132,122.365723 L285.194132,135.365723 M310.694132,142.865723 L344.194132,152.365723 M373.469898,160.675053 L397.194132,167.365723" id="形状结合" stroke="#E02020" stroke-width="7"></path>
        </g>
    </g>
</svg>