<?xml version="1.0" encoding="UTF-8"?>
<svg width="1109px" height="840px" viewBox="0 0 1109 840" version="1.1" xmlns="http://www.w3.org/2000/svg" xmlns:xlink="http://www.w3.org/1999/xlink">
    <title>panaceaé»‘original</title>
    <g id="panaceaé»‘original" stroke="none" stroke-width="1" fill="none" fill-rule="evenodd">
        <polyline id="č·Żĺľ„-33" stroke="#000000" stroke-width="17" points="365 460 365 273 433 292.232301 433 480"></polyline>
        <polyline id="č·Żĺľ„-32" stroke="#000000" stroke-width="17" points="651.422257 469.450912 575 448 575 273 653.258703 295.387987"></polyline>
        <polyline id="č·Żĺľ„-32" stroke="#000000" stroke-width="17" points="756.091931 471.202973 682 450.361881 682 273 750.284824 292 750.284824 335.321253 702 335.321253"></polyline>
        <polyline id="č·Żĺľ„-6" stroke="#000000" stroke-width="17" points="155 558 155 449.691189 223 468.673234 223 293 149 271"></polyline>
        <polyline id="č·Żĺľ„-7" stroke="#000000" stroke-width="17" points="252.109881 270 327 291.03909 327 468.202973 257.997496 448.003962 257.997496 334.463011 305.033413 334.463011"></polyline>
        <polyline id="č·Żĺľ„-7" stroke="#000000" stroke-width="17" points="462.109881 270 537 291.03909 537 468.202973 467.997496 448.003962 467.997496 334.463011 515.033413 334.463011"></polyline>
        <polyline id="č·Żĺľ„-7" stroke="#000000" stroke-width="17" points="786.109881 270 861 291.03909 861 468.202973 791.997496 448.003962 791.997496 334.463011 839.033413 334.463011"></polyline>
    </g>
</svg>