<?xml version="1.0" encoding="UTF-8"?>
<svg width="1109px" height="840px" viewBox="0 0 1109 840" version="1.1" xmlns="http://www.w3.org/2000/svg" xmlns:xlink="http://www.w3.org/1999/xlink">
    <title>panacea描边</title>
    <g id="panacea描边" stroke="none" stroke-width="1" fill="none" fill-rule="evenodd">
        <path d="M141.318756,244.199842 L246.5,275.469941 L246.5,499.631606 L178.5,480.649654 L178.5,573 L131.5,573 L131.5,418.732935 L199.5,437.714465 L199.5,310.529503 L127.925115,289.251179 L141.318756,244.199842 Z M341.5,241.931721 L456.5,274.456936 L456.5,495 L409.5,495 L409.5,310.007026 L388.5,304.067732 L388.5,475 L341.5,475 L341.5,241.931721 Z M244.024794,243.318895 L350.5,273.231272 L350.5,499.568263 L234.497496,465.611005 L234.497496,310.963011 L303.499,310.963 L303.5,308.846727 L231.313042,288.56727 L244.024794,243.318895 Z M303.499,357.963 L281.497,357.963004 L281.497,430.39651 L303.5,436.837517 L303.499,357.963 Z M454.024794,243.318895 L560.5,273.231272 L560.5,499.568263 L444.497496,465.611005 L444.497496,310.963011 L513.499,310.963 L513.5,308.846727 L441.313042,288.56727 L454.024794,243.318895 Z M513.499,357.963 L491.497,357.963004 L491.497,430.39651 L513.5,436.837517 L513.499,357.963 Z M778.024794,243.318895 L884.5,273.231272 L884.5,499.568263 L768.497496,465.611005 L768.497496,310.963011 L837.499,310.963 L837.5,308.846727 L765.313042,288.56727 L778.024794,243.318895 Z M837.499,357.963 L815.497,357.963004 L815.497,430.39651 L837.5,436.837517 L837.499,357.963 Z M658.5,242.068472 L773.784824,274.146048 L773.784824,358.821253 L705.499,358.821 L705.499,432.55929 L776.894814,452.642704 L764.16826,497.88673 L658.5,468.163629 L658.5,242.068472 Z M705.499,303.93058 L705.499,311.821 L726.784,311.821096 L726.784,309.85311 L705.499,303.93058 Z M551.5,241.834489 L674.143697,276.919986 L661.216647,322.107352 L598.499,304.164977 L598.499,430.187656 L672.214889,450.879007 L659.513365,496.130192 L551.5,465.811993 L551.5,241.834489 Z" id="形状结合" stroke="#FFFFFF" stroke-width="30" fill="#000000" fill-rule="nonzero"></path>
    </g>
</svg>